<svg id="Layer_3" enable-background="new 0 0 64 64" height="512" viewBox="0 0 64 64" width="512" xmlns="http://www.w3.org/2000/svg"><g><g fill="#c7e2fc"><path d="m7 2h14v16h-14z"/><path d="m25 2h14v16h-14z"/><path d="m43 2h14v16h-14z"/></g><path d="m7 7.749c3.83 2.023 8.651 3.44 14 3.992v-9.741h-14z" fill="#ebf7fe"/><path d="m25 11.986c.333.006.665.014 1 .014 4.694 0 9.114-.663 13-1.83v-8.17h-14z" fill="#ebf7fe"/><path d="m43 8.71c3.947-1.726 7.064-4.039 8.957-6.71h-8.957z" fill="#ebf7fe"/><path d="m12 28 17 17v7l6-2v-5l17-17" fill="#976947"/><path d="m12 22h40v6h-40z" fill="#c18e59"/><g><path d="m15 62h-2v-4.132l-1.445.964-1.109-1.664 3-2c.307-.204.701-.225 1.026-.05.325.174.528.513.528.882z" fill="#669e4f"/></g><g><path d="m22 63h-4c-.552 0-1-.447-1-1v-4c0-.553.448-1 1-1h4c.552 0 1 .447 1 1v4c0 .553-.448 1-1 1zm-3-2h2v-2h-2z" fill="#669e4f"/></g><g><path d="m30 62h-2v-4.132l-1.445.964-1.109-1.664 3-2c.307-.204.702-.225 1.026-.05.325.174.528.513.528.882z" fill="#669e4f"/></g><g><path d="m37 63h-4c-.552 0-1-.447-1-1v-4c0-.553.448-1 1-1h4c.552 0 1 .447 1 1v4c0 .553-.448 1-1 1zm-3-2h2v-2h-2z" fill="#669e4f"/></g><g><path d="m45 62h-2v-4.132l-1.445.964-1.109-1.664 3-2c.307-.204.701-.225 1.026-.05.325.174.528.513.528.882z" fill="#669e4f"/></g><g><path d="m52 63h-4c-.552 0-1-.447-1-1v-4c0-.553.448-1 1-1h4c.552 0 1 .447 1 1v4c0 .553-.448 1-1 1zm-3-2h2v-2h-2z" fill="#669e4f"/></g><g><path d="m9 4h2v2h-2z" fill="#8892a0"/></g><g><path d="m12 4h7v2h-7z" fill="#8892a0"/></g><g><path d="m17 8h2v2h-2z" fill="#8892a0"/></g><g><path d="m9 8h7v2h-7z" fill="#8892a0"/></g><g><path d="m27 4h2v2h-2z" fill="#8892a0"/></g><g><path d="m30 4h7v2h-7z" fill="#8892a0"/></g><g><path d="m35 8h2v2h-2z" fill="#8892a0"/></g><g><path d="m27 8h7v2h-7z" fill="#8892a0"/></g><g><path d="m45 4h2v2h-2z" fill="#8892a0"/></g><g><path d="m48 4h7v2h-7z" fill="#8892a0"/></g><g><path d="m53 8h2v2h-2z" fill="#8892a0"/></g><g><path d="m45 8h7v2h-7z" fill="#8892a0"/></g></g></svg>